<?xml version="1.0" encoding="utf-8" standalone="no"?>
<!DOCTYPE svg PUBLIC "-//W3C//DTD SVG 1.1//EN"
  "http://www.w3.org/Graphics/SVG/1.1/DTD/svg11.dtd">
<!-- Created with matplotlib (http://matplotlib.org/) -->
<svg height="288pt" version="1.1" viewBox="0 0 432 288" width="432pt" xmlns="http://www.w3.org/2000/svg" xmlns:xlink="http://www.w3.org/1999/xlink">
 <defs>
  <style type="text/css">
*{stroke-linecap:butt;stroke-linejoin:round;}
  </style>
 </defs>
 <g id="figure_1">
  <g id="patch_1">
   <path d="M 0 288 
L 432 288 
L 432 0 
L 0 0 
z
" style="fill:none;"/>
  </g>
  <g id="axes_1">
   <g id="LineCollection_1">
    <path clip-path="url(#p2b4abcc56a)" d="M 59.58 160.02 
L 59.58 126.54 
" style="fill:none;stroke:#000000;stroke-width:6;"/>
    <path clip-path="url(#p2b4abcc56a)" d="M 59.58 126.54 
L 81.9 160.02 
" style="fill:none;stroke:#000000;stroke-width:6;"/>
    <path clip-path="url(#p2b4abcc56a)" d="M 81.9 160.02 
L 81.9 126.54 
" style="fill:none;stroke:#000000;stroke-width:6;"/>
   </g>
   <g id="LineCollection_2">
    <path clip-path="url(#p2b4abcc56a)" d="M 126.54 126.54 
L 104.22 126.54 
" style="fill:none;stroke:#000000;stroke-width:6;"/>
    <path clip-path="url(#p2b4abcc56a)" d="M 104.22 126.54 
L 104.22 160.02 
" style="fill:none;stroke:#000000;stroke-width:6;"/>
    <path clip-path="url(#p2b4abcc56a)" d="M 104.22 160.02 
L 126.54 160.02 
" style="fill:none;stroke:#000000;stroke-width:6;"/>
    <path clip-path="url(#p2b4abcc56a)" d="M 126.54 160.02 
L 126.54 143.28 
" style="fill:none;stroke:#000000;stroke-width:6;"/>
   </g>
   <g id="LineCollection_3">
    <path clip-path="url(#p2b4abcc56a)" d="M 148.86 126.54 
L 148.86 160.02 
" style="fill:none;stroke:#000000;stroke-width:6;"/>
    <path clip-path="url(#p2b4abcc56a)" d="M 148.86 160.02 
L 171.18 160.02 
" style="fill:none;stroke:#000000;stroke-width:6;"/>
   </g>
   <g id="LineCollection_4">
    <path clip-path="url(#p2b4abcc56a)" d="M 193.5 160.02 
L 193.5 126.54 
" style="fill:none;stroke:#000000;stroke-width:6;"/>
    <path clip-path="url(#p2b4abcc56a)" d="M 193.5 126.54 
L 215.82 126.54 
" style="fill:none;stroke:#000000;stroke-width:6;"/>
    <path clip-path="url(#p2b4abcc56a)" d="M 215.82 126.54 
L 215.82 143.28 
" style="fill:none;stroke:#000000;stroke-width:6;"/>
    <path clip-path="url(#p2b4abcc56a)" d="M 215.82 143.28 
L 193.5 143.28 
" style="fill:none;stroke:#000000;stroke-width:6;"/>
   </g>
   <g id="LineCollection_5">
    <path clip-path="url(#p2b4abcc56a)" d="M 260.46 143.28 
L 238.14 176.76 
" style="fill:none;stroke:#000000;stroke-width:6;"/>
    <path clip-path="url(#p2b4abcc56a)" d="M 238.14 176.76 
L 249.3 160.02 
" style="fill:none;stroke:#000000;stroke-width:6;"/>
    <path clip-path="url(#p2b4abcc56a)" d="M 249.3 160.02 
L 238.14 143.28 
" style="fill:none;stroke:#000000;stroke-width:6;"/>
   </g>
   <g id="LineCollection_6">
    <path clip-path="url(#p2b4abcc56a)" d="M 305.1 143.28 
L 282.78 143.28 
" style="fill:none;stroke:#000000;stroke-width:6;"/>
    <path clip-path="url(#p2b4abcc56a)" d="M 282.78 143.28 
L 282.78 160.02 
" style="fill:none;stroke:#000000;stroke-width:6;"/>
    <path clip-path="url(#p2b4abcc56a)" d="M 282.78 160.02 
L 305.1 160.02 
" style="fill:none;stroke:#000000;stroke-width:6;"/>
   </g>
   <g id="LineCollection_7">
    <path clip-path="url(#p2b4abcc56a)" d="M 327.42 143.28 
L 327.42 160.02 
" style="fill:none;stroke:#000000;stroke-width:6;"/>
    <path clip-path="url(#p2b4abcc56a)" d="M 327.42 160.02 
L 349.74 160.02 
" style="fill:none;stroke:#000000;stroke-width:6;"/>
    <path clip-path="url(#p2b4abcc56a)" d="M 349.74 160.02 
L 349.74 143.28 
" style="fill:none;stroke:#000000;stroke-width:6;"/>
   </g>
   <g id="LineCollection_8">
    <path clip-path="url(#p2b4abcc56a)" d="M 59.58 160.02 
L 59.58 126.54 
" style="fill:none;stroke:#35456c;stroke-width:4;"/>
    <path clip-path="url(#p2b4abcc56a)" d="M 59.58 126.54 
L 81.9 160.02 
" style="fill:none;stroke:#35456c;stroke-width:4;"/>
    <path clip-path="url(#p2b4abcc56a)" d="M 81.9 160.02 
L 81.9 126.54 
" style="fill:none;stroke:#35456c;stroke-width:4;"/>
   </g>
   <g id="LineCollection_9">
    <path clip-path="url(#p2b4abcc56a)" d="M 126.54 126.54 
L 104.22 126.54 
" style="fill:none;stroke:#666970;stroke-width:4;"/>
    <path clip-path="url(#p2b4abcc56a)" d="M 104.22 126.54 
L 104.22 160.02 
" style="fill:none;stroke:#666970;stroke-width:4;"/>
    <path clip-path="url(#p2b4abcc56a)" d="M 104.22 160.02 
L 126.54 160.02 
" style="fill:none;stroke:#666970;stroke-width:4;"/>
    <path clip-path="url(#p2b4abcc56a)" d="M 126.54 160.02 
L 126.54 143.28 
" style="fill:none;stroke:#666970;stroke-width:4;"/>
   </g>
   <g id="LineCollection_10">
    <path clip-path="url(#p2b4abcc56a)" d="M 148.86 126.54 
L 148.86 160.02 
" style="fill:none;stroke:#948e77;stroke-width:4;"/>
    <path clip-path="url(#p2b4abcc56a)" d="M 148.86 160.02 
L 171.18 160.02 
" style="fill:none;stroke:#948e77;stroke-width:4;"/>
   </g>
   <g id="LineCollection_11">
    <path clip-path="url(#p2b4abcc56a)" d="M 193.5 160.02 
L 193.5 126.54 
" style="fill:none;stroke:#c8b866;stroke-width:4;"/>
    <path clip-path="url(#p2b4abcc56a)" d="M 193.5 126.54 
L 215.82 126.54 
" style="fill:none;stroke:#c8b866;stroke-width:4;"/>
    <path clip-path="url(#p2b4abcc56a)" d="M 215.82 126.54 
L 215.82 143.28 
" style="fill:none;stroke:#c8b866;stroke-width:4;"/>
    <path clip-path="url(#p2b4abcc56a)" d="M 215.82 143.28 
L 193.5 143.28 
" style="fill:none;stroke:#c8b866;stroke-width:4;"/>
   </g>
   <g id="LineCollection_12">
    <path clip-path="url(#p2b4abcc56a)" d="M 260.46 143.28 
L 238.14 176.76 
" style="fill:none;stroke:#fee838;stroke-width:4;"/>
    <path clip-path="url(#p2b4abcc56a)" d="M 238.14 176.76 
L 249.3 160.02 
" style="fill:none;stroke:#fee838;stroke-width:4;"/>
    <path clip-path="url(#p2b4abcc56a)" d="M 249.3 160.02 
L 238.14 143.28 
" style="fill:none;stroke:#fee838;stroke-width:4;"/>
   </g>
   <g id="LineCollection_13">
    <path clip-path="url(#p2b4abcc56a)" d="M 305.1 143.28 
L 282.78 143.28 
" style="fill:none;stroke:#76b900;stroke-width:4;"/>
    <path clip-path="url(#p2b4abcc56a)" d="M 282.78 143.28 
L 282.78 160.02 
" style="fill:none;stroke:#76b900;stroke-width:4;"/>
    <path clip-path="url(#p2b4abcc56a)" d="M 282.78 160.02 
L 305.1 160.02 
" style="fill:none;stroke:#76b900;stroke-width:4;"/>
   </g>
   <g id="LineCollection_14">
    <path clip-path="url(#p2b4abcc56a)" d="M 327.42 143.28 
L 327.42 160.02 
" style="fill:none;stroke:#76b900;stroke-width:4;"/>
    <path clip-path="url(#p2b4abcc56a)" d="M 327.42 160.02 
L 349.74 160.02 
" style="fill:none;stroke:#76b900;stroke-width:4;"/>
    <path clip-path="url(#p2b4abcc56a)" d="M 349.74 160.02 
L 349.74 143.28 
" style="fill:none;stroke:#76b900;stroke-width:4;"/>
   </g>
   <g id="PatchCollection_1">
    <path clip-path="url(#p2b4abcc56a)" d="M 59.58 164.484 
C 60.763867 164.484 61.899405 164.013645 62.736525 163.176525 
C 63.573645 162.339405 64.044 161.203867 64.044 160.02 
C 64.044 158.836133 63.573645 157.700595 62.736525 156.863475 
C 61.899405 156.026355 60.763867 155.556 59.58 155.556 
C 58.396133 155.556 57.260595 156.026355 56.423475 156.863475 
C 55.586355 157.700595 55.116 158.836133 55.116 160.02 
C 55.116 161.203867 55.586355 162.339405 56.423475 163.176525 
C 57.260595 164.013645 58.396133 164.484 59.58 164.484 
z
" style="fill:#ffffff;stroke:#ffffff;"/>
    <path clip-path="url(#p2b4abcc56a)" d="M 59.58 131.004 
C 60.763867 131.004 61.899405 130.533645 62.736525 129.696525 
C 63.573645 128.859405 64.044 127.723867 64.044 126.54 
C 64.044 125.356133 63.573645 124.220595 62.736525 123.383475 
C 61.899405 122.546355 60.763867 122.076 59.58 122.076 
C 58.396133 122.076 57.260595 122.546355 56.423475 123.383475 
C 55.586355 124.220595 55.116 125.356133 55.116 126.54 
C 55.116 127.723867 55.586355 128.859405 56.423475 129.696525 
C 57.260595 130.533645 58.396133 131.004 59.58 131.004 
z
" style="fill:#ffffff;stroke:#ffffff;"/>
    <path clip-path="url(#p2b4abcc56a)" d="M 81.9 164.484 
C 83.083867 164.484 84.219405 164.013645 85.056525 163.176525 
C 85.893645 162.339405 86.364 161.203867 86.364 160.02 
C 86.364 158.836133 85.893645 157.700595 85.056525 156.863475 
C 84.219405 156.026355 83.083867 155.556 81.9 155.556 
C 80.716133 155.556 79.580595 156.026355 78.743475 156.863475 
C 77.906355 157.700595 77.436 158.836133 77.436 160.02 
C 77.436 161.203867 77.906355 162.339405 78.743475 163.176525 
C 79.580595 164.013645 80.716133 164.484 81.9 164.484 
z
" style="fill:#ffffff;stroke:#ffffff;"/>
    <path clip-path="url(#p2b4abcc56a)" d="M 81.9 131.004 
C 83.083867 131.004 84.219405 130.533645 85.056525 129.696525 
C 85.893645 128.859405 86.364 127.723867 86.364 126.54 
C 86.364 125.356133 85.893645 124.220595 85.056525 123.383475 
C 84.219405 122.546355 83.083867 122.076 81.9 122.076 
C 80.716133 122.076 79.580595 122.546355 78.743475 123.383475 
C 77.906355 124.220595 77.436 125.356133 77.436 126.54 
C 77.436 127.723867 77.906355 128.859405 78.743475 129.696525 
C 79.580595 130.533645 80.716133 131.004 81.9 131.004 
z
" style="fill:#ffffff;stroke:#ffffff;"/>
   </g>
   <g id="PatchCollection_2">
    <path clip-path="url(#p2b4abcc56a)" d="M 126.54 131.004 
C 127.723867 131.004 128.859405 130.533645 129.696525 129.696525 
C 130.533645 128.859405 131.004 127.723867 131.004 126.54 
C 131.004 125.356133 130.533645 124.220595 129.696525 123.383475 
C 128.859405 122.546355 127.723867 122.076 126.54 122.076 
C 125.356133 122.076 124.220595 122.546355 123.383475 123.383475 
C 122.546355 124.220595 122.076 125.356133 122.076 126.54 
C 122.076 127.723867 122.546355 128.859405 123.383475 129.696525 
C 124.220595 130.533645 125.356133 131.004 126.54 131.004 
z
" style="fill:#ffffff;stroke:#ffffff;"/>
    <path clip-path="url(#p2b4abcc56a)" d="M 104.22 131.004 
C 105.403867 131.004 106.539405 130.533645 107.376525 129.696525 
C 108.213645 128.859405 108.684 127.723867 108.684 126.54 
C 108.684 125.356133 108.213645 124.220595 107.376525 123.383475 
C 106.539405 122.546355 105.403867 122.076 104.22 122.076 
C 103.036133 122.076 101.900595 122.546355 101.063475 123.383475 
C 100.226355 124.220595 99.756 125.356133 99.756 126.54 
C 99.756 127.723867 100.226355 128.859405 101.063475 129.696525 
C 101.900595 130.533645 103.036133 131.004 104.22 131.004 
z
" style="fill:#ffffff;stroke:#ffffff;"/>
    <path clip-path="url(#p2b4abcc56a)" d="M 104.22 164.484 
C 105.403867 164.484 106.539405 164.013645 107.376525 163.176525 
C 108.213645 162.339405 108.684 161.203867 108.684 160.02 
C 108.684 158.836133 108.213645 157.700595 107.376525 156.863475 
C 106.539405 156.026355 105.403867 155.556 104.22 155.556 
C 103.036133 155.556 101.900595 156.026355 101.063475 156.863475 
C 100.226355 157.700595 99.756 158.836133 99.756 160.02 
C 99.756 161.203867 100.226355 162.339405 101.063475 163.176525 
C 101.900595 164.013645 103.036133 164.484 104.22 164.484 
z
" style="fill:#ffffff;stroke:#ffffff;"/>
    <path clip-path="url(#p2b4abcc56a)" d="M 126.54 164.484 
C 127.723867 164.484 128.859405 164.013645 129.696525 163.176525 
C 130.533645 162.339405 131.004 161.203867 131.004 160.02 
C 131.004 158.836133 130.533645 157.700595 129.696525 156.863475 
C 128.859405 156.026355 127.723867 155.556 126.54 155.556 
C 125.356133 155.556 124.220595 156.026355 123.383475 156.863475 
C 122.546355 157.700595 122.076 158.836133 122.076 160.02 
C 122.076 161.203867 122.546355 162.339405 123.383475 163.176525 
C 124.220595 164.013645 125.356133 164.484 126.54 164.484 
z
" style="fill:#ffffff;stroke:#ffffff;"/>
    <path clip-path="url(#p2b4abcc56a)" d="M 126.54 147.744 
C 127.723867 147.744 128.859405 147.273645 129.696525 146.436525 
C 130.533645 145.599405 131.004 144.463867 131.004 143.28 
C 131.004 142.096133 130.533645 140.960595 129.696525 140.123475 
C 128.859405 139.286355 127.723867 138.816 126.54 138.816 
C 125.356133 138.816 124.220595 139.286355 123.383475 140.123475 
C 122.546355 140.960595 122.076 142.096133 122.076 143.28 
C 122.076 144.463867 122.546355 145.599405 123.383475 146.436525 
C 124.220595 147.273645 125.356133 147.744 126.54 147.744 
z
" style="fill:#ffffff;stroke:#ffffff;"/>
   </g>
   <g id="PatchCollection_3">
    <path clip-path="url(#p2b4abcc56a)" d="M 148.86 131.004 
C 150.043867 131.004 151.179405 130.533645 152.016525 129.696525 
C 152.853645 128.859405 153.324 127.723867 153.324 126.54 
C 153.324 125.356133 152.853645 124.220595 152.016525 123.383475 
C 151.179405 122.546355 150.043867 122.076 148.86 122.076 
C 147.676133 122.076 146.540595 122.546355 145.703475 123.383475 
C 144.866355 124.220595 144.396 125.356133 144.396 126.54 
C 144.396 127.723867 144.866355 128.859405 145.703475 129.696525 
C 146.540595 130.533645 147.676133 131.004 148.86 131.004 
z
" style="fill:#ffffff;stroke:#ffffff;"/>
    <path clip-path="url(#p2b4abcc56a)" d="M 148.86 164.484 
C 150.043867 164.484 151.179405 164.013645 152.016525 163.176525 
C 152.853645 162.339405 153.324 161.203867 153.324 160.02 
C 153.324 158.836133 152.853645 157.700595 152.016525 156.863475 
C 151.179405 156.026355 150.043867 155.556 148.86 155.556 
C 147.676133 155.556 146.540595 156.026355 145.703475 156.863475 
C 144.866355 157.700595 144.396 158.836133 144.396 160.02 
C 144.396 161.203867 144.866355 162.339405 145.703475 163.176525 
C 146.540595 164.013645 147.676133 164.484 148.86 164.484 
z
" style="fill:#ffffff;stroke:#ffffff;"/>
    <path clip-path="url(#p2b4abcc56a)" d="M 171.18 164.484 
C 172.363867 164.484 173.499405 164.013645 174.336525 163.176525 
C 175.173645 162.339405 175.644 161.203867 175.644 160.02 
C 175.644 158.836133 175.173645 157.700595 174.336525 156.863475 
C 173.499405 156.026355 172.363867 155.556 171.18 155.556 
C 169.996133 155.556 168.860595 156.026355 168.023475 156.863475 
C 167.186355 157.700595 166.716 158.836133 166.716 160.02 
C 166.716 161.203867 167.186355 162.339405 168.023475 163.176525 
C 168.860595 164.013645 169.996133 164.484 171.18 164.484 
z
" style="fill:#ffffff;stroke:#ffffff;"/>
   </g>
   <g id="PatchCollection_4">
    <path clip-path="url(#p2b4abcc56a)" d="M 193.5 164.484 
C 194.683867 164.484 195.819405 164.013645 196.656525 163.176525 
C 197.493645 162.339405 197.964 161.203867 197.964 160.02 
C 197.964 158.836133 197.493645 157.700595 196.656525 156.863475 
C 195.819405 156.026355 194.683867 155.556 193.5 155.556 
C 192.316133 155.556 191.180595 156.026355 190.343475 156.863475 
C 189.506355 157.700595 189.036 158.836133 189.036 160.02 
C 189.036 161.203867 189.506355 162.339405 190.343475 163.176525 
C 191.180595 164.013645 192.316133 164.484 193.5 164.484 
z
" style="fill:#ffffff;stroke:#ffffff;"/>
    <path clip-path="url(#p2b4abcc56a)" d="M 193.5 131.004 
C 194.683867 131.004 195.819405 130.533645 196.656525 129.696525 
C 197.493645 128.859405 197.964 127.723867 197.964 126.54 
C 197.964 125.356133 197.493645 124.220595 196.656525 123.383475 
C 195.819405 122.546355 194.683867 122.076 193.5 122.076 
C 192.316133 122.076 191.180595 122.546355 190.343475 123.383475 
C 189.506355 124.220595 189.036 125.356133 189.036 126.54 
C 189.036 127.723867 189.506355 128.859405 190.343475 129.696525 
C 191.180595 130.533645 192.316133 131.004 193.5 131.004 
z
" style="fill:#ffffff;stroke:#ffffff;"/>
    <path clip-path="url(#p2b4abcc56a)" d="M 215.82 131.004 
C 217.003867 131.004 218.139405 130.533645 218.976525 129.696525 
C 219.813645 128.859405 220.284 127.723867 220.284 126.54 
C 220.284 125.356133 219.813645 124.220595 218.976525 123.383475 
C 218.139405 122.546355 217.003867 122.076 215.82 122.076 
C 214.636133 122.076 213.500595 122.546355 212.663475 123.383475 
C 211.826355 124.220595 211.356 125.356133 211.356 126.54 
C 211.356 127.723867 211.826355 128.859405 212.663475 129.696525 
C 213.500595 130.533645 214.636133 131.004 215.82 131.004 
z
" style="fill:#ffffff;stroke:#ffffff;"/>
    <path clip-path="url(#p2b4abcc56a)" d="M 215.82 147.744 
C 217.003867 147.744 218.139405 147.273645 218.976525 146.436525 
C 219.813645 145.599405 220.284 144.463867 220.284 143.28 
C 220.284 142.096133 219.813645 140.960595 218.976525 140.123475 
C 218.139405 139.286355 217.003867 138.816 215.82 138.816 
C 214.636133 138.816 213.500595 139.286355 212.663475 140.123475 
C 211.826355 140.960595 211.356 142.096133 211.356 143.28 
C 211.356 144.463867 211.826355 145.599405 212.663475 146.436525 
C 213.500595 147.273645 214.636133 147.744 215.82 147.744 
z
" style="fill:#ffffff;stroke:#ffffff;"/>
    <path clip-path="url(#p2b4abcc56a)" d="M 193.5 147.744 
C 194.683867 147.744 195.819405 147.273645 196.656525 146.436525 
C 197.493645 145.599405 197.964 144.463867 197.964 143.28 
C 197.964 142.096133 197.493645 140.960595 196.656525 140.123475 
C 195.819405 139.286355 194.683867 138.816 193.5 138.816 
C 192.316133 138.816 191.180595 139.286355 190.343475 140.123475 
C 189.506355 140.960595 189.036 142.096133 189.036 143.28 
C 189.036 144.463867 189.506355 145.599405 190.343475 146.436525 
C 191.180595 147.273645 192.316133 147.744 193.5 147.744 
z
" style="fill:#ffffff;stroke:#ffffff;"/>
   </g>
   <g id="PatchCollection_5">
    <path clip-path="url(#p2b4abcc56a)" d="M 260.46 147.744 
C 261.643867 147.744 262.779405 147.273645 263.616525 146.436525 
C 264.453645 145.599405 264.924 144.463867 264.924 143.28 
C 264.924 142.096133 264.453645 140.960595 263.616525 140.123475 
C 262.779405 139.286355 261.643867 138.816 260.46 138.816 
C 259.276133 138.816 258.140595 139.286355 257.303475 140.123475 
C 256.466355 140.960595 255.996 142.096133 255.996 143.28 
C 255.996 144.463867 256.466355 145.599405 257.303475 146.436525 
C 258.140595 147.273645 259.276133 147.744 260.46 147.744 
z
" style="fill:#ffffff;stroke:#ffffff;"/>
    <path clip-path="url(#p2b4abcc56a)" d="M 238.14 181.224 
C 239.323867 181.224 240.459405 180.753645 241.296525 179.916525 
C 242.133645 179.079405 242.604 177.943867 242.604 176.76 
C 242.604 175.576133 242.133645 174.440595 241.296525 173.603475 
C 240.459405 172.766355 239.323867 172.296 238.14 172.296 
C 236.956133 172.296 235.820595 172.766355 234.983475 173.603475 
C 234.146355 174.440595 233.676 175.576133 233.676 176.76 
C 233.676 177.943867 234.146355 179.079405 234.983475 179.916525 
C 235.820595 180.753645 236.956133 181.224 238.14 181.224 
z
" style="fill:#ffffff;stroke:#ffffff;"/>
    <path clip-path="url(#p2b4abcc56a)" d="M 249.3 164.484 
C 250.483867 164.484 251.619405 164.013645 252.456525 163.176525 
C 253.293645 162.339405 253.764 161.203867 253.764 160.02 
C 253.764 158.836133 253.293645 157.700595 252.456525 156.863475 
C 251.619405 156.026355 250.483867 155.556 249.3 155.556 
C 248.116133 155.556 246.980595 156.026355 246.143475 156.863475 
C 245.306355 157.700595 244.836 158.836133 244.836 160.02 
C 244.836 161.203867 245.306355 162.339405 246.143475 163.176525 
C 246.980595 164.013645 248.116133 164.484 249.3 164.484 
z
" style="fill:#ffffff;stroke:#ffffff;"/>
    <path clip-path="url(#p2b4abcc56a)" d="M 238.14 147.744 
C 239.323867 147.744 240.459405 147.273645 241.296525 146.436525 
C 242.133645 145.599405 242.604 144.463867 242.604 143.28 
C 242.604 142.096133 242.133645 140.960595 241.296525 140.123475 
C 240.459405 139.286355 239.323867 138.816 238.14 138.816 
C 236.956133 138.816 235.820595 139.286355 234.983475 140.123475 
C 234.146355 140.960595 233.676 142.096133 233.676 143.28 
C 233.676 144.463867 234.146355 145.599405 234.983475 146.436525 
C 235.820595 147.273645 236.956133 147.744 238.14 147.744 
z
" style="fill:#ffffff;stroke:#ffffff;"/>
   </g>
   <g id="PatchCollection_6">
    <path clip-path="url(#p2b4abcc56a)" d="M 305.1 147.186 
C 306.135883 147.186 307.129479 146.774439 307.861959 146.041959 
C 308.594439 145.309479 309.006 144.315883 309.006 143.28 
C 309.006 142.244117 308.594439 141.250521 307.861959 140.518041 
C 307.129479 139.785561 306.135883 139.374 305.1 139.374 
C 304.064117 139.374 303.070521 139.785561 302.338041 140.518041 
C 301.605561 141.250521 301.194 142.244117 301.194 143.28 
C 301.194 144.315883 301.605561 145.309479 302.338041 146.041959 
C 303.070521 146.774439 304.064117 147.186 305.1 147.186 
z
" style="fill:#ffffff;stroke:#ffffff;"/>
    <path clip-path="url(#p2b4abcc56a)" d="M 282.78 147.186 
C 283.815883 147.186 284.809479 146.774439 285.541959 146.041959 
C 286.274439 145.309479 286.686 144.315883 286.686 143.28 
C 286.686 142.244117 286.274439 141.250521 285.541959 140.518041 
C 284.809479 139.785561 283.815883 139.374 282.78 139.374 
C 281.744117 139.374 280.750521 139.785561 280.018041 140.518041 
C 279.285561 141.250521 278.874 142.244117 278.874 143.28 
C 278.874 144.315883 279.285561 145.309479 280.018041 146.041959 
C 280.750521 146.774439 281.744117 147.186 282.78 147.186 
z
" style="fill:#ffffff;stroke:#ffffff;"/>
    <path clip-path="url(#p2b4abcc56a)" d="M 282.78 163.926 
C 283.815883 163.926 284.809479 163.514439 285.541959 162.781959 
C 286.274439 162.049479 286.686 161.055883 286.686 160.02 
C 286.686 158.984117 286.274439 157.990521 285.541959 157.258041 
C 284.809479 156.525561 283.815883 156.114 282.78 156.114 
C 281.744117 156.114 280.750521 156.525561 280.018041 157.258041 
C 279.285561 157.990521 278.874 158.984117 278.874 160.02 
C 278.874 161.055883 279.285561 162.049479 280.018041 162.781959 
C 280.750521 163.514439 281.744117 163.926 282.78 163.926 
z
" style="fill:#ffffff;stroke:#ffffff;"/>
    <path clip-path="url(#p2b4abcc56a)" d="M 305.1 163.926 
C 306.135883 163.926 307.129479 163.514439 307.861959 162.781959 
C 308.594439 162.049479 309.006 161.055883 309.006 160.02 
C 309.006 158.984117 308.594439 157.990521 307.861959 157.258041 
C 307.129479 156.525561 306.135883 156.114 305.1 156.114 
C 304.064117 156.114 303.070521 156.525561 302.338041 157.258041 
C 301.605561 157.990521 301.194 158.984117 301.194 160.02 
C 301.194 161.055883 301.605561 162.049479 302.338041 162.781959 
C 303.070521 163.514439 304.064117 163.926 305.1 163.926 
z
" style="fill:#ffffff;stroke:#ffffff;"/>
   </g>
   <g id="PatchCollection_7">
    <path clip-path="url(#p2b4abcc56a)" d="M 327.42 147.186 
C 328.455883 147.186 329.449479 146.774439 330.181959 146.041959 
C 330.914439 145.309479 331.326 144.315883 331.326 143.28 
C 331.326 142.244117 330.914439 141.250521 330.181959 140.518041 
C 329.449479 139.785561 328.455883 139.374 327.42 139.374 
C 326.384117 139.374 325.390521 139.785561 324.658041 140.518041 
C 323.925561 141.250521 323.514 142.244117 323.514 143.28 
C 323.514 144.315883 323.925561 145.309479 324.658041 146.041959 
C 325.390521 146.774439 326.384117 147.186 327.42 147.186 
z
" style="fill:#ffffff;stroke:#ffffff;"/>
    <path clip-path="url(#p2b4abcc56a)" d="M 327.42 163.926 
C 328.455883 163.926 329.449479 163.514439 330.181959 162.781959 
C 330.914439 162.049479 331.326 161.055883 331.326 160.02 
C 331.326 158.984117 330.914439 157.990521 330.181959 157.258041 
C 329.449479 156.525561 328.455883 156.114 327.42 156.114 
C 326.384117 156.114 325.390521 156.525561 324.658041 157.258041 
C 323.925561 157.990521 323.514 158.984117 323.514 160.02 
C 323.514 161.055883 323.925561 162.049479 324.658041 162.781959 
C 325.390521 163.514439 326.384117 163.926 327.42 163.926 
z
" style="fill:#ffffff;stroke:#ffffff;"/>
    <path clip-path="url(#p2b4abcc56a)" d="M 349.74 163.926 
C 350.775883 163.926 351.769479 163.514439 352.501959 162.781959 
C 353.234439 162.049479 353.646 161.055883 353.646 160.02 
C 353.646 158.984117 353.234439 157.990521 352.501959 157.258041 
C 351.769479 156.525561 350.775883 156.114 349.74 156.114 
C 348.704117 156.114 347.710521 156.525561 346.978041 157.258041 
C 346.245561 157.990521 345.834 158.984117 345.834 160.02 
C 345.834 161.055883 346.245561 162.049479 346.978041 162.781959 
C 347.710521 163.514439 348.704117 163.926 349.74 163.926 
z
" style="fill:#ffffff;stroke:#ffffff;"/>
    <path clip-path="url(#p2b4abcc56a)" d="M 349.74 147.186 
C 350.775883 147.186 351.769479 146.774439 352.501959 146.041959 
C 353.234439 145.309479 353.646 144.315883 353.646 143.28 
C 353.646 142.244117 353.234439 141.250521 352.501959 140.518041 
C 351.769479 139.785561 350.775883 139.374 349.74 139.374 
C 348.704117 139.374 347.710521 139.785561 346.978041 140.518041 
C 346.245561 141.250521 345.834 142.244117 345.834 143.28 
C 345.834 144.315883 346.245561 145.309479 346.978041 146.041959 
C 347.710521 146.774439 348.704117 147.186 349.74 147.186 
z
" style="fill:#ffffff;stroke:#ffffff;"/>
   </g>
   <g id="PatchCollection_8">
    <path clip-path="url(#p2b4abcc56a)" d="M 59.58 163.368 
C 60.4679 163.368 61.319553 163.015234 61.947394 162.387394 
C 62.575234 161.759553 62.928 160.9079 62.928 160.02 
C 62.928 159.1321 62.575234 158.280447 61.947394 157.652606 
C 61.319553 157.024766 60.4679 156.672 59.58 156.672 
C 58.6921 156.672 57.840447 157.024766 57.212606 157.652606 
C 56.584766 158.280447 56.232 159.1321 56.232 160.02 
C 56.232 160.9079 56.584766 161.759553 57.212606 162.387394 
C 57.840447 163.015234 58.6921 163.368 59.58 163.368 
z
" style="fill:#35456c;stroke:#000000;"/>
    <path clip-path="url(#p2b4abcc56a)" d="M 59.58 129.888 
C 60.4679 129.888 61.319553 129.535234 61.947394 128.907394 
C 62.575234 128.279553 62.928 127.4279 62.928 126.54 
C 62.928 125.6521 62.575234 124.800447 61.947394 124.172606 
C 61.319553 123.544766 60.4679 123.192 59.58 123.192 
C 58.6921 123.192 57.840447 123.544766 57.212606 124.172606 
C 56.584766 124.800447 56.232 125.6521 56.232 126.54 
C 56.232 127.4279 56.584766 128.279553 57.212606 128.907394 
C 57.840447 129.535234 58.6921 129.888 59.58 129.888 
z
" style="fill:#35456c;stroke:#000000;"/>
    <path clip-path="url(#p2b4abcc56a)" d="M 81.9 163.368 
C 82.7879 163.368 83.639553 163.015234 84.267394 162.387394 
C 84.895234 161.759553 85.248 160.9079 85.248 160.02 
C 85.248 159.1321 84.895234 158.280447 84.267394 157.652606 
C 83.639553 157.024766 82.7879 156.672 81.9 156.672 
C 81.0121 156.672 80.160447 157.024766 79.532606 157.652606 
C 78.904766 158.280447 78.552 159.1321 78.552 160.02 
C 78.552 160.9079 78.904766 161.759553 79.532606 162.387394 
C 80.160447 163.015234 81.0121 163.368 81.9 163.368 
z
" style="fill:#35456c;stroke:#000000;"/>
    <path clip-path="url(#p2b4abcc56a)" d="M 81.9 129.888 
C 82.7879 129.888 83.639553 129.535234 84.267394 128.907394 
C 84.895234 128.279553 85.248 127.4279 85.248 126.54 
C 85.248 125.6521 84.895234 124.800447 84.267394 124.172606 
C 83.639553 123.544766 82.7879 123.192 81.9 123.192 
C 81.0121 123.192 80.160447 123.544766 79.532606 124.172606 
C 78.904766 124.800447 78.552 125.6521 78.552 126.54 
C 78.552 127.4279 78.904766 128.279553 79.532606 128.907394 
C 80.160447 129.535234 81.0121 129.888 81.9 129.888 
z
" style="fill:#35456c;stroke:#000000;"/>
   </g>
   <g id="PatchCollection_9">
    <path clip-path="url(#p2b4abcc56a)" d="M 126.54 129.888 
C 127.4279 129.888 128.279553 129.535234 128.907394 128.907394 
C 129.535234 128.279553 129.888 127.4279 129.888 126.54 
C 129.888 125.6521 129.535234 124.800447 128.907394 124.172606 
C 128.279553 123.544766 127.4279 123.192 126.54 123.192 
C 125.6521 123.192 124.800447 123.544766 124.172606 124.172606 
C 123.544766 124.800447 123.192 125.6521 123.192 126.54 
C 123.192 127.4279 123.544766 128.279553 124.172606 128.907394 
C 124.800447 129.535234 125.6521 129.888 126.54 129.888 
z
" style="fill:#666970;stroke:#000000;"/>
    <path clip-path="url(#p2b4abcc56a)" d="M 104.22 129.888 
C 105.1079 129.888 105.959553 129.535234 106.587394 128.907394 
C 107.215234 128.279553 107.568 127.4279 107.568 126.54 
C 107.568 125.6521 107.215234 124.800447 106.587394 124.172606 
C 105.959553 123.544766 105.1079 123.192 104.22 123.192 
C 103.3321 123.192 102.480447 123.544766 101.852606 124.172606 
C 101.224766 124.800447 100.872 125.6521 100.872 126.54 
C 100.872 127.4279 101.224766 128.279553 101.852606 128.907394 
C 102.480447 129.535234 103.3321 129.888 104.22 129.888 
z
" style="fill:#666970;stroke:#000000;"/>
    <path clip-path="url(#p2b4abcc56a)" d="M 104.22 163.368 
C 105.1079 163.368 105.959553 163.015234 106.587394 162.387394 
C 107.215234 161.759553 107.568 160.9079 107.568 160.02 
C 107.568 159.1321 107.215234 158.280447 106.587394 157.652606 
C 105.959553 157.024766 105.1079 156.672 104.22 156.672 
C 103.3321 156.672 102.480447 157.024766 101.852606 157.652606 
C 101.224766 158.280447 100.872 159.1321 100.872 160.02 
C 100.872 160.9079 101.224766 161.759553 101.852606 162.387394 
C 102.480447 163.015234 103.3321 163.368 104.22 163.368 
z
" style="fill:#666970;stroke:#000000;"/>
    <path clip-path="url(#p2b4abcc56a)" d="M 126.54 163.368 
C 127.4279 163.368 128.279553 163.015234 128.907394 162.387394 
C 129.535234 161.759553 129.888 160.9079 129.888 160.02 
C 129.888 159.1321 129.535234 158.280447 128.907394 157.652606 
C 128.279553 157.024766 127.4279 156.672 126.54 156.672 
C 125.6521 156.672 124.800447 157.024766 124.172606 157.652606 
C 123.544766 158.280447 123.192 159.1321 123.192 160.02 
C 123.192 160.9079 123.544766 161.759553 124.172606 162.387394 
C 124.800447 163.015234 125.6521 163.368 126.54 163.368 
z
" style="fill:#666970;stroke:#000000;"/>
    <path clip-path="url(#p2b4abcc56a)" d="M 126.54 146.628 
C 127.4279 146.628 128.279553 146.275234 128.907394 145.647394 
C 129.535234 145.019553 129.888 144.1679 129.888 143.28 
C 129.888 142.3921 129.535234 141.540447 128.907394 140.912606 
C 128.279553 140.284766 127.4279 139.932 126.54 139.932 
C 125.6521 139.932 124.800447 140.284766 124.172606 140.912606 
C 123.544766 141.540447 123.192 142.3921 123.192 143.28 
C 123.192 144.1679 123.544766 145.019553 124.172606 145.647394 
C 124.800447 146.275234 125.6521 146.628 126.54 146.628 
z
" style="fill:#666970;stroke:#000000;"/>
   </g>
   <g id="PatchCollection_10">
    <path clip-path="url(#p2b4abcc56a)" d="M 148.86 129.888 
C 149.7479 129.888 150.599553 129.535234 151.227394 128.907394 
C 151.855234 128.279553 152.208 127.4279 152.208 126.54 
C 152.208 125.6521 151.855234 124.800447 151.227394 124.172606 
C 150.599553 123.544766 149.7479 123.192 148.86 123.192 
C 147.9721 123.192 147.120447 123.544766 146.492606 124.172606 
C 145.864766 124.800447 145.512 125.6521 145.512 126.54 
C 145.512 127.4279 145.864766 128.279553 146.492606 128.907394 
C 147.120447 129.535234 147.9721 129.888 148.86 129.888 
z
" style="fill:#948e77;stroke:#000000;"/>
    <path clip-path="url(#p2b4abcc56a)" d="M 148.86 163.368 
C 149.7479 163.368 150.599553 163.015234 151.227394 162.387394 
C 151.855234 161.759553 152.208 160.9079 152.208 160.02 
C 152.208 159.1321 151.855234 158.280447 151.227394 157.652606 
C 150.599553 157.024766 149.7479 156.672 148.86 156.672 
C 147.9721 156.672 147.120447 157.024766 146.492606 157.652606 
C 145.864766 158.280447 145.512 159.1321 145.512 160.02 
C 145.512 160.9079 145.864766 161.759553 146.492606 162.387394 
C 147.120447 163.015234 147.9721 163.368 148.86 163.368 
z
" style="fill:#948e77;stroke:#000000;"/>
    <path clip-path="url(#p2b4abcc56a)" d="M 171.18 163.368 
C 172.0679 163.368 172.919553 163.015234 173.547394 162.387394 
C 174.175234 161.759553 174.528 160.9079 174.528 160.02 
C 174.528 159.1321 174.175234 158.280447 173.547394 157.652606 
C 172.919553 157.024766 172.0679 156.672 171.18 156.672 
C 170.2921 156.672 169.440447 157.024766 168.812606 157.652606 
C 168.184766 158.280447 167.832 159.1321 167.832 160.02 
C 167.832 160.9079 168.184766 161.759553 168.812606 162.387394 
C 169.440447 163.015234 170.2921 163.368 171.18 163.368 
z
" style="fill:#948e77;stroke:#000000;"/>
   </g>
   <g id="PatchCollection_11">
    <path clip-path="url(#p2b4abcc56a)" d="M 193.5 163.368 
C 194.3879 163.368 195.239553 163.015234 195.867394 162.387394 
C 196.495234 161.759553 196.848 160.9079 196.848 160.02 
C 196.848 159.1321 196.495234 158.280447 195.867394 157.652606 
C 195.239553 157.024766 194.3879 156.672 193.5 156.672 
C 192.6121 156.672 191.760447 157.024766 191.132606 157.652606 
C 190.504766 158.280447 190.152 159.1321 190.152 160.02 
C 190.152 160.9079 190.504766 161.759553 191.132606 162.387394 
C 191.760447 163.015234 192.6121 163.368 193.5 163.368 
z
" style="fill:#c8b866;stroke:#000000;"/>
    <path clip-path="url(#p2b4abcc56a)" d="M 193.5 129.888 
C 194.3879 129.888 195.239553 129.535234 195.867394 128.907394 
C 196.495234 128.279553 196.848 127.4279 196.848 126.54 
C 196.848 125.6521 196.495234 124.800447 195.867394 124.172606 
C 195.239553 123.544766 194.3879 123.192 193.5 123.192 
C 192.6121 123.192 191.760447 123.544766 191.132606 124.172606 
C 190.504766 124.800447 190.152 125.6521 190.152 126.54 
C 190.152 127.4279 190.504766 128.279553 191.132606 128.907394 
C 191.760447 129.535234 192.6121 129.888 193.5 129.888 
z
" style="fill:#c8b866;stroke:#000000;"/>
    <path clip-path="url(#p2b4abcc56a)" d="M 215.82 129.888 
C 216.7079 129.888 217.559553 129.535234 218.187394 128.907394 
C 218.815234 128.279553 219.168 127.4279 219.168 126.54 
C 219.168 125.6521 218.815234 124.800447 218.187394 124.172606 
C 217.559553 123.544766 216.7079 123.192 215.82 123.192 
C 214.9321 123.192 214.080447 123.544766 213.452606 124.172606 
C 212.824766 124.800447 212.472 125.6521 212.472 126.54 
C 212.472 127.4279 212.824766 128.279553 213.452606 128.907394 
C 214.080447 129.535234 214.9321 129.888 215.82 129.888 
z
" style="fill:#c8b866;stroke:#000000;"/>
    <path clip-path="url(#p2b4abcc56a)" d="M 215.82 146.628 
C 216.7079 146.628 217.559553 146.275234 218.187394 145.647394 
C 218.815234 145.019553 219.168 144.1679 219.168 143.28 
C 219.168 142.3921 218.815234 141.540447 218.187394 140.912606 
C 217.559553 140.284766 216.7079 139.932 215.82 139.932 
C 214.9321 139.932 214.080447 140.284766 213.452606 140.912606 
C 212.824766 141.540447 212.472 142.3921 212.472 143.28 
C 212.472 144.1679 212.824766 145.019553 213.452606 145.647394 
C 214.080447 146.275234 214.9321 146.628 215.82 146.628 
z
" style="fill:#c8b866;stroke:#000000;"/>
    <path clip-path="url(#p2b4abcc56a)" d="M 193.5 146.628 
C 194.3879 146.628 195.239553 146.275234 195.867394 145.647394 
C 196.495234 145.019553 196.848 144.1679 196.848 143.28 
C 196.848 142.3921 196.495234 141.540447 195.867394 140.912606 
C 195.239553 140.284766 194.3879 139.932 193.5 139.932 
C 192.6121 139.932 191.760447 140.284766 191.132606 140.912606 
C 190.504766 141.540447 190.152 142.3921 190.152 143.28 
C 190.152 144.1679 190.504766 145.019553 191.132606 145.647394 
C 191.760447 146.275234 192.6121 146.628 193.5 146.628 
z
" style="fill:#c8b866;stroke:#000000;"/>
   </g>
   <g id="PatchCollection_12">
    <path clip-path="url(#p2b4abcc56a)" d="M 260.46 146.628 
C 261.3479 146.628 262.199553 146.275234 262.827394 145.647394 
C 263.455234 145.019553 263.808 144.1679 263.808 143.28 
C 263.808 142.3921 263.455234 141.540447 262.827394 140.912606 
C 262.199553 140.284766 261.3479 139.932 260.46 139.932 
C 259.5721 139.932 258.720447 140.284766 258.092606 140.912606 
C 257.464766 141.540447 257.112 142.3921 257.112 143.28 
C 257.112 144.1679 257.464766 145.019553 258.092606 145.647394 
C 258.720447 146.275234 259.5721 146.628 260.46 146.628 
z
" style="fill:#fee838;stroke:#000000;"/>
    <path clip-path="url(#p2b4abcc56a)" d="M 238.14 180.108 
C 239.0279 180.108 239.879553 179.755234 240.507394 179.127394 
C 241.135234 178.499553 241.488 177.6479 241.488 176.76 
C 241.488 175.8721 241.135234 175.020447 240.507394 174.392606 
C 239.879553 173.764766 239.0279 173.412 238.14 173.412 
C 237.2521 173.412 236.400447 173.764766 235.772606 174.392606 
C 235.144766 175.020447 234.792 175.8721 234.792 176.76 
C 234.792 177.6479 235.144766 178.499553 235.772606 179.127394 
C 236.400447 179.755234 237.2521 180.108 238.14 180.108 
z
" style="fill:#fee838;stroke:#000000;"/>
    <path clip-path="url(#p2b4abcc56a)" d="M 249.3 163.368 
C 250.1879 163.368 251.039553 163.015234 251.667394 162.387394 
C 252.295234 161.759553 252.648 160.9079 252.648 160.02 
C 252.648 159.1321 252.295234 158.280447 251.667394 157.652606 
C 251.039553 157.024766 250.1879 156.672 249.3 156.672 
C 248.4121 156.672 247.560447 157.024766 246.932606 157.652606 
C 246.304766 158.280447 245.952 159.1321 245.952 160.02 
C 245.952 160.9079 246.304766 161.759553 246.932606 162.387394 
C 247.560447 163.015234 248.4121 163.368 249.3 163.368 
z
" style="fill:#fee838;stroke:#000000;"/>
    <path clip-path="url(#p2b4abcc56a)" d="M 238.14 146.628 
C 239.0279 146.628 239.879553 146.275234 240.507394 145.647394 
C 241.135234 145.019553 241.488 144.1679 241.488 143.28 
C 241.488 142.3921 241.135234 141.540447 240.507394 140.912606 
C 239.879553 140.284766 239.0279 139.932 238.14 139.932 
C 237.2521 139.932 236.400447 140.284766 235.772606 140.912606 
C 235.144766 141.540447 234.792 142.3921 234.792 143.28 
C 234.792 144.1679 235.144766 145.019553 235.772606 145.647394 
C 236.400447 146.275234 237.2521 146.628 238.14 146.628 
z
" style="fill:#fee838;stroke:#000000;"/>
   </g>
   <g id="PatchCollection_13">
    <path clip-path="url(#p2b4abcc56a)" d="M 305.1 146.07 
C 305.839917 146.07 306.549628 145.776028 307.072828 145.252828 
C 307.596028 144.729628 307.89 144.019917 307.89 143.28 
C 307.89 142.540083 307.596028 141.830372 307.072828 141.307172 
C 306.549628 140.783972 305.839917 140.49 305.1 140.49 
C 304.360083 140.49 303.650372 140.783972 303.127172 141.307172 
C 302.603972 141.830372 302.31 142.540083 302.31 143.28 
C 302.31 144.019917 302.603972 144.729628 303.127172 145.252828 
C 303.650372 145.776028 304.360083 146.07 305.1 146.07 
z
" style="fill:#76b900;stroke:#000000;"/>
    <path clip-path="url(#p2b4abcc56a)" d="M 282.78 146.07 
C 283.519917 146.07 284.229628 145.776028 284.752828 145.252828 
C 285.276028 144.729628 285.57 144.019917 285.57 143.28 
C 285.57 142.540083 285.276028 141.830372 284.752828 141.307172 
C 284.229628 140.783972 283.519917 140.49 282.78 140.49 
C 282.040083 140.49 281.330372 140.783972 280.807172 141.307172 
C 280.283972 141.830372 279.99 142.540083 279.99 143.28 
C 279.99 144.019917 280.283972 144.729628 280.807172 145.252828 
C 281.330372 145.776028 282.040083 146.07 282.78 146.07 
z
" style="fill:#76b900;stroke:#000000;"/>
    <path clip-path="url(#p2b4abcc56a)" d="M 282.78 162.81 
C 283.519917 162.81 284.229628 162.516028 284.752828 161.992828 
C 285.276028 161.469628 285.57 160.759917 285.57 160.02 
C 285.57 159.280083 285.276028 158.570372 284.752828 158.047172 
C 284.229628 157.523972 283.519917 157.23 282.78 157.23 
C 282.040083 157.23 281.330372 157.523972 280.807172 158.047172 
C 280.283972 158.570372 279.99 159.280083 279.99 160.02 
C 279.99 160.759917 280.283972 161.469628 280.807172 161.992828 
C 281.330372 162.516028 282.040083 162.81 282.78 162.81 
z
" style="fill:#76b900;stroke:#000000;"/>
    <path clip-path="url(#p2b4abcc56a)" d="M 305.1 162.81 
C 305.839917 162.81 306.549628 162.516028 307.072828 161.992828 
C 307.596028 161.469628 307.89 160.759917 307.89 160.02 
C 307.89 159.280083 307.596028 158.570372 307.072828 158.047172 
C 306.549628 157.523972 305.839917 157.23 305.1 157.23 
C 304.360083 157.23 303.650372 157.523972 303.127172 158.047172 
C 302.603972 158.570372 302.31 159.280083 302.31 160.02 
C 302.31 160.759917 302.603972 161.469628 303.127172 161.992828 
C 303.650372 162.516028 304.360083 162.81 305.1 162.81 
z
" style="fill:#76b900;stroke:#000000;"/>
   </g>
   <g id="PatchCollection_14">
    <path clip-path="url(#p2b4abcc56a)" d="M 327.42 146.07 
C 328.159917 146.07 328.869628 145.776028 329.392828 145.252828 
C 329.916028 144.729628 330.21 144.019917 330.21 143.28 
C 330.21 142.540083 329.916028 141.830372 329.392828 141.307172 
C 328.869628 140.783972 328.159917 140.49 327.42 140.49 
C 326.680083 140.49 325.970372 140.783972 325.447172 141.307172 
C 324.923972 141.830372 324.63 142.540083 324.63 143.28 
C 324.63 144.019917 324.923972 144.729628 325.447172 145.252828 
C 325.970372 145.776028 326.680083 146.07 327.42 146.07 
z
" style="fill:#76b900;stroke:#000000;"/>
    <path clip-path="url(#p2b4abcc56a)" d="M 327.42 162.81 
C 328.159917 162.81 328.869628 162.516028 329.392828 161.992828 
C 329.916028 161.469628 330.21 160.759917 330.21 160.02 
C 330.21 159.280083 329.916028 158.570372 329.392828 158.047172 
C 328.869628 157.523972 328.159917 157.23 327.42 157.23 
C 326.680083 157.23 325.970372 157.523972 325.447172 158.047172 
C 324.923972 158.570372 324.63 159.280083 324.63 160.02 
C 324.63 160.759917 324.923972 161.469628 325.447172 161.992828 
C 325.970372 162.516028 326.680083 162.81 327.42 162.81 
z
" style="fill:#76b900;stroke:#000000;"/>
    <path clip-path="url(#p2b4abcc56a)" d="M 349.74 162.81 
C 350.479917 162.81 351.189628 162.516028 351.712828 161.992828 
C 352.236028 161.469628 352.53 160.759917 352.53 160.02 
C 352.53 159.280083 352.236028 158.570372 351.712828 158.047172 
C 351.189628 157.523972 350.479917 157.23 349.74 157.23 
C 349.000083 157.23 348.290372 157.523972 347.767172 158.047172 
C 347.243972 158.570372 346.95 159.280083 346.95 160.02 
C 346.95 160.759917 347.243972 161.469628 347.767172 161.992828 
C 348.290372 162.516028 349.000083 162.81 349.74 162.81 
z
" style="fill:#76b900;stroke:#000000;"/>
    <path clip-path="url(#p2b4abcc56a)" d="M 349.74 146.07 
C 350.479917 146.07 351.189628 145.776028 351.712828 145.252828 
C 352.236028 144.729628 352.53 144.019917 352.53 143.28 
C 352.53 142.540083 352.236028 141.830372 351.712828 141.307172 
C 351.189628 140.783972 350.479917 140.49 349.74 140.49 
C 349.000083 140.49 348.290372 140.783972 347.767172 141.307172 
C 347.243972 141.830372 346.95 142.540083 346.95 143.28 
C 346.95 144.019917 347.243972 144.729628 347.767172 145.252828 
C 348.290372 145.776028 349.000083 146.07 349.74 146.07 
z
" style="fill:#76b900;stroke:#000000;"/>
   </g>
  </g>
 </g>
 <defs>
  <clipPath id="p2b4abcc56a">
   <rect height="111.6" width="334.8" x="54" y="87.48"/>
  </clipPath>
 </defs>
</svg>
