<?xml version="1.0" encoding="utf-8" standalone="no"?>
<!DOCTYPE svg PUBLIC "-//W3C//DTD SVG 1.1//EN"
  "http://www.w3.org/Graphics/SVG/1.1/DTD/svg11.dtd">
<!-- Created with matplotlib (http://matplotlib.org/) -->
<svg height="288pt" version="1.1" viewBox="0 0 432 288" width="432pt" xmlns="http://www.w3.org/2000/svg" xmlns:xlink="http://www.w3.org/1999/xlink">
 <defs>
  <style type="text/css">
*{stroke-linecap:butt;stroke-linejoin:round;}
  </style>
 </defs>
 <g id="figure_1">
  <g id="patch_1">
   <path d="M 0 288 
L 432 288 
L 432 0 
L 0 0 
z
" style="fill:none;"/>
  </g>
  <g id="axes_1">
   <g id="LineCollection_1">
    <path clip-path="url(#p831b1c8abe)" d="M 62.37 168.39 
L 62.37 118.17 
" style="fill:none;stroke:#000000;stroke-width:6;"/>
    <path clip-path="url(#p831b1c8abe)" d="M 62.37 118.17 
L 95.85 168.39 
" style="fill:none;stroke:#000000;stroke-width:6;"/>
    <path clip-path="url(#p831b1c8abe)" d="M 95.85 168.39 
L 95.85 118.17 
" style="fill:none;stroke:#000000;stroke-width:6;"/>
   </g>
   <g id="LineCollection_2">
    <path clip-path="url(#p831b1c8abe)" d="M 162.81 118.17 
L 129.33 118.17 
" style="fill:none;stroke:#000000;stroke-width:6;"/>
    <path clip-path="url(#p831b1c8abe)" d="M 129.33 118.17 
L 129.33 168.39 
" style="fill:none;stroke:#000000;stroke-width:6;"/>
    <path clip-path="url(#p831b1c8abe)" d="M 129.33 168.39 
L 162.81 168.39 
" style="fill:none;stroke:#000000;stroke-width:6;"/>
    <path clip-path="url(#p831b1c8abe)" d="M 162.81 168.39 
L 162.81 143.28 
" style="fill:none;stroke:#000000;stroke-width:6;"/>
   </g>
   <g id="LineCollection_3">
    <path clip-path="url(#p831b1c8abe)" d="M 196.29 118.17 
L 196.29 168.39 
" style="fill:none;stroke:#000000;stroke-width:6;"/>
    <path clip-path="url(#p831b1c8abe)" d="M 196.29 168.39 
L 229.77 168.39 
" style="fill:none;stroke:#000000;stroke-width:6;"/>
   </g>
   <g id="LineCollection_4">
    <path clip-path="url(#p831b1c8abe)" d="M 263.25 168.39 
L 263.25 118.17 
" style="fill:none;stroke:#000000;stroke-width:6;"/>
    <path clip-path="url(#p831b1c8abe)" d="M 263.25 118.17 
L 296.73 118.17 
" style="fill:none;stroke:#000000;stroke-width:6;"/>
    <path clip-path="url(#p831b1c8abe)" d="M 296.73 118.17 
L 296.73 143.28 
" style="fill:none;stroke:#000000;stroke-width:6;"/>
    <path clip-path="url(#p831b1c8abe)" d="M 296.73 143.28 
L 263.25 143.28 
" style="fill:none;stroke:#000000;stroke-width:6;"/>
   </g>
   <g id="LineCollection_5">
    <path clip-path="url(#p831b1c8abe)" d="M 363.69 143.28 
L 330.21 193.5 
" style="fill:none;stroke:#000000;stroke-width:6;"/>
    <path clip-path="url(#p831b1c8abe)" d="M 330.21 193.5 
L 346.95 168.39 
" style="fill:none;stroke:#000000;stroke-width:6;"/>
    <path clip-path="url(#p831b1c8abe)" d="M 346.95 168.39 
L 330.21 143.28 
" style="fill:none;stroke:#000000;stroke-width:6;"/>
   </g>
   <g id="LineCollection_6">
    <path clip-path="url(#p831b1c8abe)" d="M 62.37 168.39 
L 62.37 118.17 
" style="fill:none;stroke:#35456c;stroke-width:4;"/>
    <path clip-path="url(#p831b1c8abe)" d="M 62.37 118.17 
L 95.85 168.39 
" style="fill:none;stroke:#35456c;stroke-width:4;"/>
    <path clip-path="url(#p831b1c8abe)" d="M 95.85 168.39 
L 95.85 118.17 
" style="fill:none;stroke:#35456c;stroke-width:4;"/>
   </g>
   <g id="LineCollection_7">
    <path clip-path="url(#p831b1c8abe)" d="M 162.81 118.17 
L 129.33 118.17 
" style="fill:none;stroke:#666970;stroke-width:4;"/>
    <path clip-path="url(#p831b1c8abe)" d="M 129.33 118.17 
L 129.33 168.39 
" style="fill:none;stroke:#666970;stroke-width:4;"/>
    <path clip-path="url(#p831b1c8abe)" d="M 129.33 168.39 
L 162.81 168.39 
" style="fill:none;stroke:#666970;stroke-width:4;"/>
    <path clip-path="url(#p831b1c8abe)" d="M 162.81 168.39 
L 162.81 143.28 
" style="fill:none;stroke:#666970;stroke-width:4;"/>
   </g>
   <g id="LineCollection_8">
    <path clip-path="url(#p831b1c8abe)" d="M 196.29 118.17 
L 196.29 168.39 
" style="fill:none;stroke:#948e77;stroke-width:4;"/>
    <path clip-path="url(#p831b1c8abe)" d="M 196.29 168.39 
L 229.77 168.39 
" style="fill:none;stroke:#948e77;stroke-width:4;"/>
   </g>
   <g id="LineCollection_9">
    <path clip-path="url(#p831b1c8abe)" d="M 263.25 168.39 
L 263.25 118.17 
" style="fill:none;stroke:#c8b866;stroke-width:4;"/>
    <path clip-path="url(#p831b1c8abe)" d="M 263.25 118.17 
L 296.73 118.17 
" style="fill:none;stroke:#c8b866;stroke-width:4;"/>
    <path clip-path="url(#p831b1c8abe)" d="M 296.73 118.17 
L 296.73 143.28 
" style="fill:none;stroke:#c8b866;stroke-width:4;"/>
    <path clip-path="url(#p831b1c8abe)" d="M 296.73 143.28 
L 263.25 143.28 
" style="fill:none;stroke:#c8b866;stroke-width:4;"/>
   </g>
   <g id="LineCollection_10">
    <path clip-path="url(#p831b1c8abe)" d="M 363.69 143.28 
L 330.21 193.5 
" style="fill:none;stroke:#fee838;stroke-width:4;"/>
    <path clip-path="url(#p831b1c8abe)" d="M 330.21 193.5 
L 346.95 168.39 
" style="fill:none;stroke:#fee838;stroke-width:4;"/>
    <path clip-path="url(#p831b1c8abe)" d="M 346.95 168.39 
L 330.21 143.28 
" style="fill:none;stroke:#fee838;stroke-width:4;"/>
   </g>
   <g id="PatchCollection_1">
    <path clip-path="url(#p831b1c8abe)" d="M 62.37 175.086 
C 64.1458 175.086 65.849107 174.380467 67.104787 173.124787 
C 68.360467 171.869107 69.066 170.1658 69.066 168.39 
C 69.066 166.6142 68.360467 164.910893 67.104787 163.655213 
C 65.849107 162.399533 64.1458 161.694 62.37 161.694 
C 60.5942 161.694 58.890893 162.399533 57.635213 163.655213 
C 56.379533 164.910893 55.674 166.6142 55.674 168.39 
C 55.674 170.1658 56.379533 171.869107 57.635213 173.124787 
C 58.890893 174.380467 60.5942 175.086 62.37 175.086 
z
" style="fill:#ffffff;stroke:#ffffff;"/>
    <path clip-path="url(#p831b1c8abe)" d="M 62.37 124.866 
C 64.1458 124.866 65.849107 124.160467 67.104787 122.904787 
C 68.360467 121.649107 69.066 119.9458 69.066 118.17 
C 69.066 116.3942 68.360467 114.690893 67.104787 113.435213 
C 65.849107 112.179533 64.1458 111.474 62.37 111.474 
C 60.5942 111.474 58.890893 112.179533 57.635213 113.435213 
C 56.379533 114.690893 55.674 116.3942 55.674 118.17 
C 55.674 119.9458 56.379533 121.649107 57.635213 122.904787 
C 58.890893 124.160467 60.5942 124.866 62.37 124.866 
z
" style="fill:#ffffff;stroke:#ffffff;"/>
    <path clip-path="url(#p831b1c8abe)" d="M 95.85 175.086 
C 97.6258 175.086 99.329107 174.380467 100.584787 173.124787 
C 101.840467 171.869107 102.546 170.1658 102.546 168.39 
C 102.546 166.6142 101.840467 164.910893 100.584787 163.655213 
C 99.329107 162.399533 97.6258 161.694 95.85 161.694 
C 94.0742 161.694 92.370893 162.399533 91.115213 163.655213 
C 89.859533 164.910893 89.154 166.6142 89.154 168.39 
C 89.154 170.1658 89.859533 171.869107 91.115213 173.124787 
C 92.370893 174.380467 94.0742 175.086 95.85 175.086 
z
" style="fill:#ffffff;stroke:#ffffff;"/>
    <path clip-path="url(#p831b1c8abe)" d="M 95.85 124.866 
C 97.6258 124.866 99.329107 124.160467 100.584787 122.904787 
C 101.840467 121.649107 102.546 119.9458 102.546 118.17 
C 102.546 116.3942 101.840467 114.690893 100.584787 113.435213 
C 99.329107 112.179533 97.6258 111.474 95.85 111.474 
C 94.0742 111.474 92.370893 112.179533 91.115213 113.435213 
C 89.859533 114.690893 89.154 116.3942 89.154 118.17 
C 89.154 119.9458 89.859533 121.649107 91.115213 122.904787 
C 92.370893 124.160467 94.0742 124.866 95.85 124.866 
z
" style="fill:#ffffff;stroke:#ffffff;"/>
   </g>
   <g id="PatchCollection_2">
    <path clip-path="url(#p831b1c8abe)" d="M 162.81 124.866 
C 164.5858 124.866 166.289107 124.160467 167.544787 122.904787 
C 168.800467 121.649107 169.506 119.9458 169.506 118.17 
C 169.506 116.3942 168.800467 114.690893 167.544787 113.435213 
C 166.289107 112.179533 164.5858 111.474 162.81 111.474 
C 161.0342 111.474 159.330893 112.179533 158.075213 113.435213 
C 156.819533 114.690893 156.114 116.3942 156.114 118.17 
C 156.114 119.9458 156.819533 121.649107 158.075213 122.904787 
C 159.330893 124.160467 161.0342 124.866 162.81 124.866 
z
" style="fill:#ffffff;stroke:#ffffff;"/>
    <path clip-path="url(#p831b1c8abe)" d="M 129.33 124.866 
C 131.1058 124.866 132.809107 124.160467 134.064787 122.904787 
C 135.320467 121.649107 136.026 119.9458 136.026 118.17 
C 136.026 116.3942 135.320467 114.690893 134.064787 113.435213 
C 132.809107 112.179533 131.1058 111.474 129.33 111.474 
C 127.5542 111.474 125.850893 112.179533 124.595213 113.435213 
C 123.339533 114.690893 122.634 116.3942 122.634 118.17 
C 122.634 119.9458 123.339533 121.649107 124.595213 122.904787 
C 125.850893 124.160467 127.5542 124.866 129.33 124.866 
z
" style="fill:#ffffff;stroke:#ffffff;"/>
    <path clip-path="url(#p831b1c8abe)" d="M 129.33 175.086 
C 131.1058 175.086 132.809107 174.380467 134.064787 173.124787 
C 135.320467 171.869107 136.026 170.1658 136.026 168.39 
C 136.026 166.6142 135.320467 164.910893 134.064787 163.655213 
C 132.809107 162.399533 131.1058 161.694 129.33 161.694 
C 127.5542 161.694 125.850893 162.399533 124.595213 163.655213 
C 123.339533 164.910893 122.634 166.6142 122.634 168.39 
C 122.634 170.1658 123.339533 171.869107 124.595213 173.124787 
C 125.850893 174.380467 127.5542 175.086 129.33 175.086 
z
" style="fill:#ffffff;stroke:#ffffff;"/>
    <path clip-path="url(#p831b1c8abe)" d="M 162.81 175.086 
C 164.5858 175.086 166.289107 174.380467 167.544787 173.124787 
C 168.800467 171.869107 169.506 170.1658 169.506 168.39 
C 169.506 166.6142 168.800467 164.910893 167.544787 163.655213 
C 166.289107 162.399533 164.5858 161.694 162.81 161.694 
C 161.0342 161.694 159.330893 162.399533 158.075213 163.655213 
C 156.819533 164.910893 156.114 166.6142 156.114 168.39 
C 156.114 170.1658 156.819533 171.869107 158.075213 173.124787 
C 159.330893 174.380467 161.0342 175.086 162.81 175.086 
z
" style="fill:#ffffff;stroke:#ffffff;"/>
    <path clip-path="url(#p831b1c8abe)" d="M 162.81 149.976 
C 164.5858 149.976 166.289107 149.270467 167.544787 148.014787 
C 168.800467 146.759107 169.506 145.0558 169.506 143.28 
C 169.506 141.5042 168.800467 139.800893 167.544787 138.545213 
C 166.289107 137.289533 164.5858 136.584 162.81 136.584 
C 161.0342 136.584 159.330893 137.289533 158.075213 138.545213 
C 156.819533 139.800893 156.114 141.5042 156.114 143.28 
C 156.114 145.0558 156.819533 146.759107 158.075213 148.014787 
C 159.330893 149.270467 161.0342 149.976 162.81 149.976 
z
" style="fill:#ffffff;stroke:#ffffff;"/>
   </g>
   <g id="PatchCollection_3">
    <path clip-path="url(#p831b1c8abe)" d="M 196.29 124.866 
C 198.0658 124.866 199.769107 124.160467 201.024787 122.904787 
C 202.280467 121.649107 202.986 119.9458 202.986 118.17 
C 202.986 116.3942 202.280467 114.690893 201.024787 113.435213 
C 199.769107 112.179533 198.0658 111.474 196.29 111.474 
C 194.5142 111.474 192.810893 112.179533 191.555213 113.435213 
C 190.299533 114.690893 189.594 116.3942 189.594 118.17 
C 189.594 119.9458 190.299533 121.649107 191.555213 122.904787 
C 192.810893 124.160467 194.5142 124.866 196.29 124.866 
z
" style="fill:#ffffff;stroke:#ffffff;"/>
    <path clip-path="url(#p831b1c8abe)" d="M 196.29 175.086 
C 198.0658 175.086 199.769107 174.380467 201.024787 173.124787 
C 202.280467 171.869107 202.986 170.1658 202.986 168.39 
C 202.986 166.6142 202.280467 164.910893 201.024787 163.655213 
C 199.769107 162.399533 198.0658 161.694 196.29 161.694 
C 194.5142 161.694 192.810893 162.399533 191.555213 163.655213 
C 190.299533 164.910893 189.594 166.6142 189.594 168.39 
C 189.594 170.1658 190.299533 171.869107 191.555213 173.124787 
C 192.810893 174.380467 194.5142 175.086 196.29 175.086 
z
" style="fill:#ffffff;stroke:#ffffff;"/>
    <path clip-path="url(#p831b1c8abe)" d="M 229.77 175.086 
C 231.5458 175.086 233.249107 174.380467 234.504787 173.124787 
C 235.760467 171.869107 236.466 170.1658 236.466 168.39 
C 236.466 166.6142 235.760467 164.910893 234.504787 163.655213 
C 233.249107 162.399533 231.5458 161.694 229.77 161.694 
C 227.9942 161.694 226.290893 162.399533 225.035213 163.655213 
C 223.779533 164.910893 223.074 166.6142 223.074 168.39 
C 223.074 170.1658 223.779533 171.869107 225.035213 173.124787 
C 226.290893 174.380467 227.9942 175.086 229.77 175.086 
z
" style="fill:#ffffff;stroke:#ffffff;"/>
   </g>
   <g id="PatchCollection_4">
    <path clip-path="url(#p831b1c8abe)" d="M 263.25 175.086 
C 265.0258 175.086 266.729107 174.380467 267.984787 173.124787 
C 269.240467 171.869107 269.946 170.1658 269.946 168.39 
C 269.946 166.6142 269.240467 164.910893 267.984787 163.655213 
C 266.729107 162.399533 265.0258 161.694 263.25 161.694 
C 261.4742 161.694 259.770893 162.399533 258.515213 163.655213 
C 257.259533 164.910893 256.554 166.6142 256.554 168.39 
C 256.554 170.1658 257.259533 171.869107 258.515213 173.124787 
C 259.770893 174.380467 261.4742 175.086 263.25 175.086 
z
" style="fill:#ffffff;stroke:#ffffff;"/>
    <path clip-path="url(#p831b1c8abe)" d="M 263.25 124.866 
C 265.0258 124.866 266.729107 124.160467 267.984787 122.904787 
C 269.240467 121.649107 269.946 119.9458 269.946 118.17 
C 269.946 116.3942 269.240467 114.690893 267.984787 113.435213 
C 266.729107 112.179533 265.0258 111.474 263.25 111.474 
C 261.4742 111.474 259.770893 112.179533 258.515213 113.435213 
C 257.259533 114.690893 256.554 116.3942 256.554 118.17 
C 256.554 119.9458 257.259533 121.649107 258.515213 122.904787 
C 259.770893 124.160467 261.4742 124.866 263.25 124.866 
z
" style="fill:#ffffff;stroke:#ffffff;"/>
    <path clip-path="url(#p831b1c8abe)" d="M 296.73 124.866 
C 298.5058 124.866 300.209107 124.160467 301.464787 122.904787 
C 302.720467 121.649107 303.426 119.9458 303.426 118.17 
C 303.426 116.3942 302.720467 114.690893 301.464787 113.435213 
C 300.209107 112.179533 298.5058 111.474 296.73 111.474 
C 294.9542 111.474 293.250893 112.179533 291.995213 113.435213 
C 290.739533 114.690893 290.034 116.3942 290.034 118.17 
C 290.034 119.9458 290.739533 121.649107 291.995213 122.904787 
C 293.250893 124.160467 294.9542 124.866 296.73 124.866 
z
" style="fill:#ffffff;stroke:#ffffff;"/>
    <path clip-path="url(#p831b1c8abe)" d="M 296.73 149.976 
C 298.5058 149.976 300.209107 149.270467 301.464787 148.014787 
C 302.720467 146.759107 303.426 145.0558 303.426 143.28 
C 303.426 141.5042 302.720467 139.800893 301.464787 138.545213 
C 300.209107 137.289533 298.5058 136.584 296.73 136.584 
C 294.9542 136.584 293.250893 137.289533 291.995213 138.545213 
C 290.739533 139.800893 290.034 141.5042 290.034 143.28 
C 290.034 145.0558 290.739533 146.759107 291.995213 148.014787 
C 293.250893 149.270467 294.9542 149.976 296.73 149.976 
z
" style="fill:#ffffff;stroke:#ffffff;"/>
    <path clip-path="url(#p831b1c8abe)" d="M 263.25 149.976 
C 265.0258 149.976 266.729107 149.270467 267.984787 148.014787 
C 269.240467 146.759107 269.946 145.0558 269.946 143.28 
C 269.946 141.5042 269.240467 139.800893 267.984787 138.545213 
C 266.729107 137.289533 265.0258 136.584 263.25 136.584 
C 261.4742 136.584 259.770893 137.289533 258.515213 138.545213 
C 257.259533 139.800893 256.554 141.5042 256.554 143.28 
C 256.554 145.0558 257.259533 146.759107 258.515213 148.014787 
C 259.770893 149.270467 261.4742 149.976 263.25 149.976 
z
" style="fill:#ffffff;stroke:#ffffff;"/>
   </g>
   <g id="PatchCollection_5">
    <path clip-path="url(#p831b1c8abe)" d="M 363.69 149.976 
C 365.4658 149.976 367.169107 149.270467 368.424787 148.014787 
C 369.680467 146.759107 370.386 145.0558 370.386 143.28 
C 370.386 141.5042 369.680467 139.800893 368.424787 138.545213 
C 367.169107 137.289533 365.4658 136.584 363.69 136.584 
C 361.9142 136.584 360.210893 137.289533 358.955213 138.545213 
C 357.699533 139.800893 356.994 141.5042 356.994 143.28 
C 356.994 145.0558 357.699533 146.759107 358.955213 148.014787 
C 360.210893 149.270467 361.9142 149.976 363.69 149.976 
z
" style="fill:#ffffff;stroke:#ffffff;"/>
    <path clip-path="url(#p831b1c8abe)" d="M 330.21 200.196 
C 331.9858 200.196 333.689107 199.490467 334.944787 198.234787 
C 336.200467 196.979107 336.906 195.2758 336.906 193.5 
C 336.906 191.7242 336.200467 190.020893 334.944787 188.765213 
C 333.689107 187.509533 331.9858 186.804 330.21 186.804 
C 328.4342 186.804 326.730893 187.509533 325.475213 188.765213 
C 324.219533 190.020893 323.514 191.7242 323.514 193.5 
C 323.514 195.2758 324.219533 196.979107 325.475213 198.234787 
C 326.730893 199.490467 328.4342 200.196 330.21 200.196 
z
" style="fill:#ffffff;stroke:#ffffff;"/>
    <path clip-path="url(#p831b1c8abe)" d="M 346.95 175.086 
C 348.7258 175.086 350.429107 174.380467 351.684787 173.124787 
C 352.940467 171.869107 353.646 170.1658 353.646 168.39 
C 353.646 166.6142 352.940467 164.910893 351.684787 163.655213 
C 350.429107 162.399533 348.7258 161.694 346.95 161.694 
C 345.1742 161.694 343.470893 162.399533 342.215213 163.655213 
C 340.959533 164.910893 340.254 166.6142 340.254 168.39 
C 340.254 170.1658 340.959533 171.869107 342.215213 173.124787 
C 343.470893 174.380467 345.1742 175.086 346.95 175.086 
z
" style="fill:#ffffff;stroke:#ffffff;"/>
    <path clip-path="url(#p831b1c8abe)" d="M 330.21 149.976 
C 331.9858 149.976 333.689107 149.270467 334.944787 148.014787 
C 336.200467 146.759107 336.906 145.0558 336.906 143.28 
C 336.906 141.5042 336.200467 139.800893 334.944787 138.545213 
C 333.689107 137.289533 331.9858 136.584 330.21 136.584 
C 328.4342 136.584 326.730893 137.289533 325.475213 138.545213 
C 324.219533 139.800893 323.514 141.5042 323.514 143.28 
C 323.514 145.0558 324.219533 146.759107 325.475213 148.014787 
C 326.730893 149.270467 328.4342 149.976 330.21 149.976 
z
" style="fill:#ffffff;stroke:#ffffff;"/>
   </g>
   <g id="PatchCollection_6">
    <path clip-path="url(#p831b1c8abe)" d="M 62.37 173.412 
C 63.70185 173.412 64.97933 172.88285 65.92109 171.94109 
C 66.86285 170.99933 67.392 169.72185 67.392 168.39 
C 67.392 167.05815 66.86285 165.78067 65.92109 164.83891 
C 64.97933 163.89715 63.70185 163.368 62.37 163.368 
C 61.03815 163.368 59.76067 163.89715 58.81891 164.83891 
C 57.87715 165.78067 57.348 167.05815 57.348 168.39 
C 57.348 169.72185 57.87715 170.99933 58.81891 171.94109 
C 59.76067 172.88285 61.03815 173.412 62.37 173.412 
z
" style="fill:#35456c;stroke:#000000;"/>
    <path clip-path="url(#p831b1c8abe)" d="M 62.37 123.192 
C 63.70185 123.192 64.97933 122.66285 65.92109 121.72109 
C 66.86285 120.77933 67.392 119.50185 67.392 118.17 
C 67.392 116.83815 66.86285 115.56067 65.92109 114.61891 
C 64.97933 113.67715 63.70185 113.148 62.37 113.148 
C 61.03815 113.148 59.76067 113.67715 58.81891 114.61891 
C 57.87715 115.56067 57.348 116.83815 57.348 118.17 
C 57.348 119.50185 57.87715 120.77933 58.81891 121.72109 
C 59.76067 122.66285 61.03815 123.192 62.37 123.192 
z
" style="fill:#35456c;stroke:#000000;"/>
    <path clip-path="url(#p831b1c8abe)" d="M 95.85 173.412 
C 97.18185 173.412 98.45933 172.88285 99.40109 171.94109 
C 100.34285 170.99933 100.872 169.72185 100.872 168.39 
C 100.872 167.05815 100.34285 165.78067 99.40109 164.83891 
C 98.45933 163.89715 97.18185 163.368 95.85 163.368 
C 94.51815 163.368 93.24067 163.89715 92.29891 164.83891 
C 91.35715 165.78067 90.828 167.05815 90.828 168.39 
C 90.828 169.72185 91.35715 170.99933 92.29891 171.94109 
C 93.24067 172.88285 94.51815 173.412 95.85 173.412 
z
" style="fill:#35456c;stroke:#000000;"/>
    <path clip-path="url(#p831b1c8abe)" d="M 95.85 123.192 
C 97.18185 123.192 98.45933 122.66285 99.40109 121.72109 
C 100.34285 120.77933 100.872 119.50185 100.872 118.17 
C 100.872 116.83815 100.34285 115.56067 99.40109 114.61891 
C 98.45933 113.67715 97.18185 113.148 95.85 113.148 
C 94.51815 113.148 93.24067 113.67715 92.29891 114.61891 
C 91.35715 115.56067 90.828 116.83815 90.828 118.17 
C 90.828 119.50185 91.35715 120.77933 92.29891 121.72109 
C 93.24067 122.66285 94.51815 123.192 95.85 123.192 
z
" style="fill:#35456c;stroke:#000000;"/>
   </g>
   <g id="PatchCollection_7">
    <path clip-path="url(#p831b1c8abe)" d="M 162.81 123.192 
C 164.14185 123.192 165.41933 122.66285 166.36109 121.72109 
C 167.30285 120.77933 167.832 119.50185 167.832 118.17 
C 167.832 116.83815 167.30285 115.56067 166.36109 114.61891 
C 165.41933 113.67715 164.14185 113.148 162.81 113.148 
C 161.47815 113.148 160.20067 113.67715 159.25891 114.61891 
C 158.31715 115.56067 157.788 116.83815 157.788 118.17 
C 157.788 119.50185 158.31715 120.77933 159.25891 121.72109 
C 160.20067 122.66285 161.47815 123.192 162.81 123.192 
z
" style="fill:#666970;stroke:#000000;"/>
    <path clip-path="url(#p831b1c8abe)" d="M 129.33 123.192 
C 130.66185 123.192 131.93933 122.66285 132.88109 121.72109 
C 133.82285 120.77933 134.352 119.50185 134.352 118.17 
C 134.352 116.83815 133.82285 115.56067 132.88109 114.61891 
C 131.93933 113.67715 130.66185 113.148 129.33 113.148 
C 127.99815 113.148 126.72067 113.67715 125.77891 114.61891 
C 124.83715 115.56067 124.308 116.83815 124.308 118.17 
C 124.308 119.50185 124.83715 120.77933 125.77891 121.72109 
C 126.72067 122.66285 127.99815 123.192 129.33 123.192 
z
" style="fill:#666970;stroke:#000000;"/>
    <path clip-path="url(#p831b1c8abe)" d="M 129.33 173.412 
C 130.66185 173.412 131.93933 172.88285 132.88109 171.94109 
C 133.82285 170.99933 134.352 169.72185 134.352 168.39 
C 134.352 167.05815 133.82285 165.78067 132.88109 164.83891 
C 131.93933 163.89715 130.66185 163.368 129.33 163.368 
C 127.99815 163.368 126.72067 163.89715 125.77891 164.83891 
C 124.83715 165.78067 124.308 167.05815 124.308 168.39 
C 124.308 169.72185 124.83715 170.99933 125.77891 171.94109 
C 126.72067 172.88285 127.99815 173.412 129.33 173.412 
z
" style="fill:#666970;stroke:#000000;"/>
    <path clip-path="url(#p831b1c8abe)" d="M 162.81 173.412 
C 164.14185 173.412 165.41933 172.88285 166.36109 171.94109 
C 167.30285 170.99933 167.832 169.72185 167.832 168.39 
C 167.832 167.05815 167.30285 165.78067 166.36109 164.83891 
C 165.41933 163.89715 164.14185 163.368 162.81 163.368 
C 161.47815 163.368 160.20067 163.89715 159.25891 164.83891 
C 158.31715 165.78067 157.788 167.05815 157.788 168.39 
C 157.788 169.72185 158.31715 170.99933 159.25891 171.94109 
C 160.20067 172.88285 161.47815 173.412 162.81 173.412 
z
" style="fill:#666970;stroke:#000000;"/>
    <path clip-path="url(#p831b1c8abe)" d="M 162.81 148.302 
C 164.14185 148.302 165.41933 147.77285 166.36109 146.83109 
C 167.30285 145.88933 167.832 144.61185 167.832 143.28 
C 167.832 141.94815 167.30285 140.67067 166.36109 139.72891 
C 165.41933 138.78715 164.14185 138.258 162.81 138.258 
C 161.47815 138.258 160.20067 138.78715 159.25891 139.72891 
C 158.31715 140.67067 157.788 141.94815 157.788 143.28 
C 157.788 144.61185 158.31715 145.88933 159.25891 146.83109 
C 160.20067 147.77285 161.47815 148.302 162.81 148.302 
z
" style="fill:#666970;stroke:#000000;"/>
   </g>
   <g id="PatchCollection_8">
    <path clip-path="url(#p831b1c8abe)" d="M 196.29 123.192 
C 197.62185 123.192 198.89933 122.66285 199.84109 121.72109 
C 200.78285 120.77933 201.312 119.50185 201.312 118.17 
C 201.312 116.83815 200.78285 115.56067 199.84109 114.61891 
C 198.89933 113.67715 197.62185 113.148 196.29 113.148 
C 194.95815 113.148 193.68067 113.67715 192.73891 114.61891 
C 191.79715 115.56067 191.268 116.83815 191.268 118.17 
C 191.268 119.50185 191.79715 120.77933 192.73891 121.72109 
C 193.68067 122.66285 194.95815 123.192 196.29 123.192 
z
" style="fill:#948e77;stroke:#000000;"/>
    <path clip-path="url(#p831b1c8abe)" d="M 196.29 173.412 
C 197.62185 173.412 198.89933 172.88285 199.84109 171.94109 
C 200.78285 170.99933 201.312 169.72185 201.312 168.39 
C 201.312 167.05815 200.78285 165.78067 199.84109 164.83891 
C 198.89933 163.89715 197.62185 163.368 196.29 163.368 
C 194.95815 163.368 193.68067 163.89715 192.73891 164.83891 
C 191.79715 165.78067 191.268 167.05815 191.268 168.39 
C 191.268 169.72185 191.79715 170.99933 192.73891 171.94109 
C 193.68067 172.88285 194.95815 173.412 196.29 173.412 
z
" style="fill:#948e77;stroke:#000000;"/>
    <path clip-path="url(#p831b1c8abe)" d="M 229.77 173.412 
C 231.10185 173.412 232.37933 172.88285 233.32109 171.94109 
C 234.26285 170.99933 234.792 169.72185 234.792 168.39 
C 234.792 167.05815 234.26285 165.78067 233.32109 164.83891 
C 232.37933 163.89715 231.10185 163.368 229.77 163.368 
C 228.43815 163.368 227.16067 163.89715 226.21891 164.83891 
C 225.27715 165.78067 224.748 167.05815 224.748 168.39 
C 224.748 169.72185 225.27715 170.99933 226.21891 171.94109 
C 227.16067 172.88285 228.43815 173.412 229.77 173.412 
z
" style="fill:#948e77;stroke:#000000;"/>
   </g>
   <g id="PatchCollection_9">
    <path clip-path="url(#p831b1c8abe)" d="M 263.25 173.412 
C 264.58185 173.412 265.85933 172.88285 266.80109 171.94109 
C 267.74285 170.99933 268.272 169.72185 268.272 168.39 
C 268.272 167.05815 267.74285 165.78067 266.80109 164.83891 
C 265.85933 163.89715 264.58185 163.368 263.25 163.368 
C 261.91815 163.368 260.64067 163.89715 259.69891 164.83891 
C 258.75715 165.78067 258.228 167.05815 258.228 168.39 
C 258.228 169.72185 258.75715 170.99933 259.69891 171.94109 
C 260.64067 172.88285 261.91815 173.412 263.25 173.412 
z
" style="fill:#c8b866;stroke:#000000;"/>
    <path clip-path="url(#p831b1c8abe)" d="M 263.25 123.192 
C 264.58185 123.192 265.85933 122.66285 266.80109 121.72109 
C 267.74285 120.77933 268.272 119.50185 268.272 118.17 
C 268.272 116.83815 267.74285 115.56067 266.80109 114.61891 
C 265.85933 113.67715 264.58185 113.148 263.25 113.148 
C 261.91815 113.148 260.64067 113.67715 259.69891 114.61891 
C 258.75715 115.56067 258.228 116.83815 258.228 118.17 
C 258.228 119.50185 258.75715 120.77933 259.69891 121.72109 
C 260.64067 122.66285 261.91815 123.192 263.25 123.192 
z
" style="fill:#c8b866;stroke:#000000;"/>
    <path clip-path="url(#p831b1c8abe)" d="M 296.73 123.192 
C 298.06185 123.192 299.33933 122.66285 300.28109 121.72109 
C 301.22285 120.77933 301.752 119.50185 301.752 118.17 
C 301.752 116.83815 301.22285 115.56067 300.28109 114.61891 
C 299.33933 113.67715 298.06185 113.148 296.73 113.148 
C 295.39815 113.148 294.12067 113.67715 293.17891 114.61891 
C 292.23715 115.56067 291.708 116.83815 291.708 118.17 
C 291.708 119.50185 292.23715 120.77933 293.17891 121.72109 
C 294.12067 122.66285 295.39815 123.192 296.73 123.192 
z
" style="fill:#c8b866;stroke:#000000;"/>
    <path clip-path="url(#p831b1c8abe)" d="M 296.73 148.302 
C 298.06185 148.302 299.33933 147.77285 300.28109 146.83109 
C 301.22285 145.88933 301.752 144.61185 301.752 143.28 
C 301.752 141.94815 301.22285 140.67067 300.28109 139.72891 
C 299.33933 138.78715 298.06185 138.258 296.73 138.258 
C 295.39815 138.258 294.12067 138.78715 293.17891 139.72891 
C 292.23715 140.67067 291.708 141.94815 291.708 143.28 
C 291.708 144.61185 292.23715 145.88933 293.17891 146.83109 
C 294.12067 147.77285 295.39815 148.302 296.73 148.302 
z
" style="fill:#c8b866;stroke:#000000;"/>
    <path clip-path="url(#p831b1c8abe)" d="M 263.25 148.302 
C 264.58185 148.302 265.85933 147.77285 266.80109 146.83109 
C 267.74285 145.88933 268.272 144.61185 268.272 143.28 
C 268.272 141.94815 267.74285 140.67067 266.80109 139.72891 
C 265.85933 138.78715 264.58185 138.258 263.25 138.258 
C 261.91815 138.258 260.64067 138.78715 259.69891 139.72891 
C 258.75715 140.67067 258.228 141.94815 258.228 143.28 
C 258.228 144.61185 258.75715 145.88933 259.69891 146.83109 
C 260.64067 147.77285 261.91815 148.302 263.25 148.302 
z
" style="fill:#c8b866;stroke:#000000;"/>
   </g>
   <g id="PatchCollection_10">
    <path clip-path="url(#p831b1c8abe)" d="M 363.69 148.302 
C 365.02185 148.302 366.29933 147.77285 367.24109 146.83109 
C 368.18285 145.88933 368.712 144.61185 368.712 143.28 
C 368.712 141.94815 368.18285 140.67067 367.24109 139.72891 
C 366.29933 138.78715 365.02185 138.258 363.69 138.258 
C 362.35815 138.258 361.08067 138.78715 360.13891 139.72891 
C 359.19715 140.67067 358.668 141.94815 358.668 143.28 
C 358.668 144.61185 359.19715 145.88933 360.13891 146.83109 
C 361.08067 147.77285 362.35815 148.302 363.69 148.302 
z
" style="fill:#fee838;stroke:#000000;"/>
    <path clip-path="url(#p831b1c8abe)" d="M 330.21 198.522 
C 331.54185 198.522 332.81933 197.99285 333.76109 197.05109 
C 334.70285 196.10933 335.232 194.83185 335.232 193.5 
C 335.232 192.16815 334.70285 190.89067 333.76109 189.94891 
C 332.81933 189.00715 331.54185 188.478 330.21 188.478 
C 328.87815 188.478 327.60067 189.00715 326.65891 189.94891 
C 325.71715 190.89067 325.188 192.16815 325.188 193.5 
C 325.188 194.83185 325.71715 196.10933 326.65891 197.05109 
C 327.60067 197.99285 328.87815 198.522 330.21 198.522 
z
" style="fill:#fee838;stroke:#000000;"/>
    <path clip-path="url(#p831b1c8abe)" d="M 346.95 173.412 
C 348.28185 173.412 349.55933 172.88285 350.50109 171.94109 
C 351.44285 170.99933 351.972 169.72185 351.972 168.39 
C 351.972 167.05815 351.44285 165.78067 350.50109 164.83891 
C 349.55933 163.89715 348.28185 163.368 346.95 163.368 
C 345.61815 163.368 344.34067 163.89715 343.39891 164.83891 
C 342.45715 165.78067 341.928 167.05815 341.928 168.39 
C 341.928 169.72185 342.45715 170.99933 343.39891 171.94109 
C 344.34067 172.88285 345.61815 173.412 346.95 173.412 
z
" style="fill:#fee838;stroke:#000000;"/>
    <path clip-path="url(#p831b1c8abe)" d="M 330.21 148.302 
C 331.54185 148.302 332.81933 147.77285 333.76109 146.83109 
C 334.70285 145.88933 335.232 144.61185 335.232 143.28 
C 335.232 141.94815 334.70285 140.67067 333.76109 139.72891 
C 332.81933 138.78715 331.54185 138.258 330.21 138.258 
C 328.87815 138.258 327.60067 138.78715 326.65891 139.72891 
C 325.71715 140.67067 325.188 141.94815 325.188 143.28 
C 325.188 144.61185 325.71715 145.88933 326.65891 146.83109 
C 327.60067 147.77285 328.87815 148.302 330.21 148.302 
z
" style="fill:#fee838;stroke:#000000;"/>
   </g>
  </g>
 </g>
 <defs>
  <clipPath id="p831b1c8abe">
   <rect height="167.4" width="334.8" x="54" y="59.58"/>
  </clipPath>
 </defs>
</svg>
